<svg width="87" height="27" viewBox="0 0 87 27" fill="none" xmlns="http://www.w3.org/2000/svg">
<path d="M4.048 23.336H12.832V26H0.772V0.907999H4.048V23.336ZM19.5151 0.907999V16.784C19.5151 19.016 20.0551 20.672 21.1351 21.752C22.2391 22.832 23.7631 23.372 25.7071 23.372C27.6271 23.372 29.1271 22.832 30.2071 21.752C31.3111 20.672 31.8631 19.016 31.8631 16.784V0.907999H35.1391V16.748C35.1391 18.836 34.7191 20.6 33.8791 22.04C33.0391 23.456 31.8991 24.512 30.4591 25.208C29.0431 25.904 27.4471 26.252 25.6711 26.252C23.8951 26.252 22.2871 25.904 20.8471 25.208C19.4311 24.512 18.3031 23.456 17.4631 22.04C16.6471 20.6 16.2391 18.836 16.2391 16.748V0.907999H19.5151ZM60.332 26H57.056L43.88 6.02V26H40.604V0.872H43.88L57.056 20.816V0.872H60.332V26ZM80.7485 20.42H69.8045L67.7885 26H64.3325L73.4045 1.052H77.1845L86.2205 26H82.7645L80.7485 20.42ZM79.8125 17.756L75.2765 5.084L70.7405 17.756H79.8125Z" fill="black"/>
</svg>
