<svg width="41" height="12" viewBox="0 0 41 12" fill="none" xmlns="http://www.w3.org/2000/svg">
<path d="M7.44008 9.34473H2.59145V0.431152H0.701797V11H7.44008V9.34473ZM10.8988 0.431152H9.01649V7.35986C9.01649 9.66699 10.6864 11.2637 13.3597 11.2637C16.0331 11.2637 17.703 9.66699 17.703 7.35986V0.431152H15.8134V7.18408C15.8134 8.6123 14.9271 9.57178 13.3597 9.57178C11.7924 9.57178 10.8988 8.6123 10.8988 7.18408V0.431152ZM21.9235 11V3.80762H22.048L27.2335 11H28.8668V0.431152H27.0504V7.61621H26.9259L21.7404 0.431152H20.0997V11H21.9235ZM38.0604 11H40.0892L36.3319 0.431152H34.2079L30.4579 11H32.3695L33.2777 8.29736H37.1669L38.0604 11ZM35.1673 2.44531H35.2919L36.7274 6.80322H33.7171L35.1673 2.44531Z" fill="white"/>
</svg>
