<svg width="256" height="256" viewBox="0 0 256 256" fill="none" xmlns="http://www.w3.org/2000/svg">
<path d="M110.604 145.396L141.066 175.857C143.794 178.585 147.987 179.202 151.384 177.378L187.89 157.781C190.589 156.33 193.852 156.4 196.488 157.966L249.751 189.573C253.551 191.828 255.081 196.544 253.302 200.588C248.751 210.946 240.466 229.93 237.175 238.324C236.483 240.091 235.453 241.71 234.019 242.951C198.521 273.72 127.896 236.229 73.8381 182.17C19.7715 128.109 -17.72 57.4844 13.0496 21.9871C14.2931 20.5531 15.912 19.5224 17.6765 18.8306C26.0677 15.5396 45.0543 7.25487 55.4117 2.70357C59.456 0.925063 64.1726 2.4543 66.4272 6.25499L98.0342 59.5178C99.5971 62.1534 99.6671 65.4163 98.2191 68.1163L78.6219 104.616C76.7986 108.014 77.4147 112.206 80.1427 114.934L110.604 145.396Z" fill="white"/>
</svg>
